<svg width="80" height="80" viewBox="0 0 80 80" fill="none" xmlns="http://www.w3.org/2000/svg">
<circle cx="40" cy="40" r="40" fill="#FAFAFA"/>
<g clip-path="url(#clip0_1_3306)">
<path d="M40 19.6875C35.9826 19.6875 32.0553 20.8788 28.715 23.1108C25.3746 25.3427 22.7711 28.5151 21.2337 32.2267C19.6963 35.9384 19.294 40.0225 20.0778 43.9628C20.8616 47.903 22.7961 51.5224 25.6369 54.3631C28.4776 57.2039 32.097 59.1384 36.0372 59.9222C39.9775 60.706 44.0616 60.3037 47.7732 58.7663C51.4849 57.2289 54.6572 54.6254 56.8892 51.285C59.1212 47.9446 60.3125 44.0174 60.3125 40C60.3022 34.616 58.1588 29.4554 54.3517 25.6483C50.5446 21.8412 45.384 19.6978 40 19.6875ZM49.668 36.4453L38.2226 47.3828C37.9268 47.6612 37.5351 47.815 37.1289 47.8125C36.9303 47.8153 36.7332 47.7788 36.5488 47.7051C36.3644 47.6313 36.1965 47.5218 36.0547 47.3828L30.332 41.9141C30.1733 41.7756 30.0442 41.6064 29.9525 41.4168C29.8608 41.2272 29.8084 41.0209 29.7985 40.8105C29.7885 40.6001 29.8212 40.3899 29.8946 40.1924C29.968 39.995 30.0805 39.8144 30.2255 39.6615C30.3704 39.5087 30.5447 39.3867 30.738 39.303C30.9313 39.2192 31.1395 39.1754 31.3502 39.1742C31.5608 39.173 31.7695 39.2144 31.9638 39.2959C32.158 39.3774 32.3338 39.4973 32.4805 39.6484L37.1289 44.082L47.5195 34.1797C47.8233 33.9146 48.2178 33.7773 48.6206 33.7963C49.0233 33.8154 49.4031 33.9894 49.6805 34.2819C49.958 34.5745 50.1115 34.963 50.1092 35.3661C50.1069 35.7693 49.9488 36.156 49.668 36.4453Z" fill="#438883"/>
</g>
<defs>
<clipPath id="clip0_1_3306">
<rect width="50" height="50" fill="white" transform="translate(15 15)"/>
</clipPath>
</defs>
</svg>
